<svg width="522" height="522" viewBox="0 0 522 522" fill="none" xmlns="http://www.w3.org/2000/svg">
<circle cx="261" cy="261" r="261" fill="#515980"/>
<path d="M388.5 134C388.5 70 338.5 6.5 261 6.5C127.5 6.5 5.99999 112.5 6.5 260.5C6.94932 393.499 122.5 513.5 261 513.5C191 513.5 133.5 458.5 133.5 385.5C133.5 317 192 259.58 261 260.5C336 261.5 388.5 200.5 388.5 134Z" fill="white"/>
<path d="M132 386C132 450 182 513.5 259.5 513.5C393 513.5 514.5 407.5 514 259.5C513.551 126.501 398 6.5 259.5 6.5C329.5 6.5 387 61.5 387 134.5C387 203 328.5 260.42 259.5 259.5C184.5 258.5 132 319.5 132 386Z" fill="#515980"/>
<path d="M295 88.5C284 88.5 270.5 91 261 110C252 91 238 88.5 228 88.5C211.5 88.5 194 100.5 194 119C194 138.5 216.5 154.053 230 164C239.5 171 255 181.5 261 197C268 181.5 283.55 171 293 164C306.5 154 329.882 135.5 328.5 118C327 99 309 88.5 295 88.5Z" fill="#515981"/>
<path d="M227.559 433.5C238.559 433.5 252.059 431 261.559 412C270.559 431 284.559 433.5 294.559 433.5C311.059 433.5 328.559 421.5 328.559 403C328.559 383.5 306.059 367.947 292.559 358C283.059 351 267.559 340.5 261.559 325C254.559 340.5 239.009 351 229.559 358C216.059 368 192.677 386.5 194.059 404C195.559 423 213.559 433.5 227.559 433.5Z" fill="white"/>
</svg>
