<svg width="550" height="550" viewBox="0 0 550 550" fill="none" xmlns="http://www.w3.org/2000/svg">
<circle cx="275" cy="275" r="275" fill="#515980"/>
<path d="M146.502 401.5C146.502 465.5 196.502 529 274.002 529C407.502 529 529.002 423 528.502 275C528.052 142.001 412.502 22 274.002 22C344.002 22 401.502 77 401.502 150C401.502 218.5 343.002 275.92 274.002 275C199.002 274 146.502 335 146.502 401.5Z" fill="#515980"/>
<path d="M403.002 149.5C403.002 85.5 353.002 22 275.502 22C142.002 22 20.5015 128 21.0015 276C21.4509 408.999 137.002 529 275.502 529C205.502 529 148.002 474 148.002 401C148.002 332.5 206.502 275.08 275.502 276C350.502 277 403.002 216 403.002 149.5Z" fill="white"/>
<path d="M309.502 104C298.502 104 285.002 106.5 275.502 125.5C266.502 106.5 252.502 104 242.502 104C226.002 104 208.502 116 208.502 134.5C208.502 154 231.002 169.553 244.502 179.5C254.002 186.5 269.502 197 275.502 212.5C282.502 197 298.052 186.5 307.502 179.5C321.002 169.5 344.383 151 343.002 133.5C341.502 114.5 323.502 104 309.502 104Z" fill="#515981"/>
<path d="M242.06 449C253.06 449 266.56 446.5 276.06 427.5C285.06 446.5 299.06 449 309.06 449C325.56 449 343.06 437 343.06 418.5C343.06 399 320.56 383.447 307.06 373.5C297.56 366.5 282.06 356 276.06 340.5C269.06 356 253.51 366.5 244.06 373.5C230.56 383.5 207.179 402 208.56 419.5C210.06 438.5 228.06 449 242.06 449Z" fill="white"/>
</svg>
