<svg width="688" height="688" viewBox="0 0 688 688" fill="none" xmlns="http://www.w3.org/2000/svg">
<rect width="688" height="688" fill="#70789E"/>
<circle cx="344" cy="344" r="275" fill="#515980"/>
<path d="M215.502 470.5C215.502 534.5 265.502 598 343.002 598C476.502 598 598.002 492 597.502 344C597.052 211.001 481.502 91 343.002 91C413.002 91 470.502 146 470.502 219C470.502 287.5 412.002 344.92 343.002 344C268.002 343 215.502 404 215.502 470.5Z" fill="#515980"/>
<path d="M472.002 218.5C472.002 154.5 422.002 91 344.502 91C211.002 91 89.5015 197 90.0015 345C90.4509 477.999 206.002 598 344.502 598C274.502 598 217.002 543 217.002 470C217.002 401.5 275.502 344.08 344.502 345C419.502 346 472.002 285 472.002 218.5Z" fill="white"/>
<path d="M378.502 173C367.502 173 354.002 175.5 344.502 194.5C335.502 175.5 321.502 173 311.502 173C295.002 173 277.502 185 277.502 203.5C277.502 223 300.002 238.553 313.502 248.5C323.002 255.5 338.502 266 344.502 281.5C351.502 266 367.052 255.5 376.502 248.5C390.002 238.5 413.383 220 412.002 202.5C410.502 183.5 392.502 173 378.502 173Z" fill="#515981"/>
<path d="M311.06 518C322.06 518 335.56 515.5 345.06 496.5C354.06 515.5 368.06 518 378.06 518C394.56 518 412.06 506 412.06 487.5C412.06 468 389.56 452.447 376.06 442.5C366.56 435.5 351.06 425 345.06 409.5C338.06 425 322.51 435.5 313.06 442.5C299.56 452.5 276.179 471 277.56 488.5C279.06 507.5 297.06 518 311.06 518Z" fill="white"/>
</svg>
